<?xml version="1.0" encoding="UTF-8" standalone="no"?>
<svg
   xmlns:dc="http://purl.org/dc/elements/1.1/"
   xmlns:cc="http://creativecommons.org/ns#"
   xmlns:rdf="http://www.w3.org/1999/02/22-rdf-syntax-ns#"
   xmlns:svg="http://www.w3.org/2000/svg"
   xmlns="http://www.w3.org/2000/svg"
   xmlns:sodipodi="http://sodipodi.sourceforge.net/DTD/sodipodi-0.dtd"
   xmlns:inkscape="http://www.inkscape.org/namespaces/inkscape"
   version="1.1"
   id="svg2"
   xml:space="preserve"
   width="1365.3333"
   height="1365.3333"
   viewBox="0 0 1365.3333 1365.3333"
   sodipodi:docname="XFER-Logo.ai"><metadata
     id="metadata8"><rdf:RDF><cc:Work
         rdf:about=""><dc:format>image/svg+xml</dc:format><dc:type
           rdf:resource="http://purl.org/dc/dcmitype/StillImage" /></cc:Work></rdf:RDF></metadata><defs
     id="defs6"><clipPath
       clipPathUnits="userSpaceOnUse"
       id="clipPath18"><path
         d="M 0,1024 H 1024 V 0 H 0 Z"
         id="path16" /></clipPath><linearGradient
       x1="0"
       y1="0"
       x2="1"
       y2="0"
       gradientUnits="userSpaceOnUse"
       gradientTransform="matrix(721.905,0,0,721.905,-389.541,904.1738)"
       spreadMethod="pad"
       id="linearGradient26"><stop
         style="stop-opacity:1;stop-color:#2980b9"
         offset="0"
         id="stop22" /><stop
         style="stop-opacity:1;stop-color:#2c3e50"
         offset="1"
         id="stop24" /></linearGradient><linearGradient
       x1="0"
       y1="0"
       x2="1"
       y2="0"
       gradientUnits="userSpaceOnUse"
       gradientTransform="matrix(719.83624,0,0,-719.83624,143.5,520)"
       spreadMethod="pad"
       id="linearGradient46"><stop
         style="stop-opacity:1;stop-color:#ff5f6d"
         offset="0"
         id="stop42" /><stop
         style="stop-opacity:1;stop-color:#ffc371"
         offset="1"
         id="stop44" /></linearGradient></defs><sodipodi:namedview
     pagecolor="#ffffff"
     bordercolor="#666666"
     borderopacity="1"
     objecttolerance="10"
     gridtolerance="10"
     guidetolerance="10"
     inkscape:pageopacity="0"
     inkscape:pageshadow="2"
     inkscape:window-width="640"
     inkscape:window-height="480"
     id="namedview4" /><g
     id="g10"
     inkscape:groupmode="layer"
     inkscape:label="XFER-Logo"
     transform="matrix(1.3333333,0,0,-1.3333333,0,1365.3333)"><g
       id="g12"><g
         id="g14"
         clip-path="url(#clipPath18)"><g
           id="g20"
           transform="translate(532,400.1738)"><path
             d="M 0,0 187.669,-240.674 H 331.336 L 71.5,90.495 Z M 71.5,147.326 331.336,478.495 H 187.669 L 0,237.821 Z m -316,333 263.09,-328.863 c 14.573,-18.216 14.613,-44.089 0.096,-62.35 L -243.5,-240.674 h -144 l 288,360 -289,361 z"
             style="fill:none;stroke:url(#linearGradient26);stroke-width:1;stroke-linecap:butt;stroke-linejoin:miter;stroke-miterlimit:10;stroke-dasharray:none;stroke-opacity:1"
             id="path28" /></g></g></g><g
       id="g30"><g
         id="g32"><g
           id="g38"><g
             id="g40"><path
               d="m 143.5,880.5 289,-361 -288,-360 h 144 l 262.186,329.787 c 14.517,18.261 14.477,44.134 -0.097,62.35 v 0 L 287.5,880.5 Z M 719.669,878.669 532,637.995 603.5,547.5 863.336,878.669 Z M 532,400.174 719.669,159.5 H 863.336 L 603.5,490.669 Z"
               style="fill:url(#linearGradient46);stroke:none"
               id="path48" /></g></g></g></g></g></svg>
